<svg width="376" height="438" viewBox="0 0 376 438" fill="none" xmlns="http://www.w3.org/2000/svg">
<path d="M124.21 2.08557L144.71 25.0856L165.71 54.0856L182.21 82.5856L190.119 111.749C192.638 105.239 252.763 18.437 245.158 54.0855C237.158 91.5855 224.056 60.4948 237.658 121.086C254.158 194.586 263.546 84.6051 301.5 73.5588C337.882 62.9702 369.658 112.086 345 112.086C341.623 120.278 354.186 143.45 363 149.059C369.292 153.063 363.954 160.229 359.691 168.362L356.658 186.059C383.5 186.059 381.5 207.559 351 239.559C300.387 292.661 350.325 268.252 356.658 277.086C366.825 296.752 353.858 295.886 356.658 307.086C360.158 321.086 325.158 341.586 312.158 352.586C299.158 363.586 307.658 361.086 272.158 394.586C236.658 428.086 182.658 439.585 165.158 436.585C147.658 433.586 67.7101 385.586 50.7101 363.086C33.7101 340.586 7.21009 337.586 1.7101 277.086C-3.78989 216.586 33.7101 156.086 39.7101 159.586C45.7101 163.086 74.7101 117.586 97.7101 82.5855C120.71 47.5855 124.21 17.0856 124.21 2.08557Z" fill="url(#paint0_linear_20_133)"/>
<path d="M356.658 186.059C383.5 186.059 381.5 207.559 351 239.559C300.387 292.661 350.325 268.252 356.658 277.086C366.825 296.752 353.858 295.886 356.658 307.086C360.158 321.086 325.158 341.586 312.158 352.586C299.158 363.586 307.658 361.086 272.158 394.586C236.658 428.086 182.658 439.585 165.158 436.585C147.658 433.586 67.7101 385.586 50.7101 363.086C33.7101 340.586 7.2101 337.586 1.7101 277.086C-3.78989 216.586 33.7101 156.086 39.7101 159.586C45.7101 163.086 74.7101 117.586 97.7101 82.5855C120.71 47.5855 124.21 17.0856 124.21 2.08557L144.71 25.0856L165.71 54.0856L182.21 82.5856L190.21 112.086C186.21 114.586 253.158 16.5855 245.158 54.0855C237.158 91.5855 224.056 60.4948 237.658 121.086C254.158 194.586 263.546 84.6051 301.5 73.5588C337.882 62.9702 369.658 112.086 345 112.086C341.623 120.278 354.186 143.45 363 149.059M356.658 186.059C350.834 171.775 373.685 155.858 363 149.059M356.658 186.059L363 149.059" stroke="black"/>
<defs>
<linearGradient id="paint0_linear_20_133" x1="326.416" y1="69.5347" x2="46.4805" y2="359.838" gradientUnits="userSpaceOnUse">
<stop stop-color="white"/>
<stop offset="0.333333" stop-color="#8E098E"/>
<stop offset="0.666667" stop-color="#B71111"/>
<stop offset="1" stop-color="#B71111"/>
</linearGradient>
</defs>
</svg>
